<svg width="476" height="220" viewBox="0 0 476 220" fill="none" xmlns="http://www.w3.org/2000/svg">
<g clip-path="url(#clip0_0_1)">
<mask id="path-1-inside-1_0_1" fill="white">
<path d="M235.016 10.641C224.657 12.1899 215.835 17.6423 211.141 25.2633C207.094 31.8929 205.88 37.7789 207.661 42.3019C210.251 49.1794 216.24 51.5958 221.177 47.8163C222.552 46.701 223.524 45.3379 223.524 44.3466C223.524 42.3639 219.558 39.0801 217.13 39.0801C214.54 39.0801 211.627 40.3193 210.494 41.9922C209.522 43.3553 209.36 43.4172 208.875 42.3639C206.042 36.9115 211.222 24.4578 218.668 18.7576C226.761 12.5617 240.358 10.1453 250.474 13.0574C259.862 15.7836 266.742 21.6696 270.383 30.0961C276.372 44.1607 271.355 58.5971 255.249 73.0955L252.902 75.2021L249.989 73.5292C248.37 72.5998 246.589 71.9183 246.023 72.1042C245.294 72.352 245.375 72.4759 246.266 72.4759C247.641 72.5379 251.041 75.0782 250.96 76.0076C250.96 76.3174 249.098 77.8044 246.751 79.2914L242.624 82.0176L240.358 80.0349C237.768 77.8044 237.282 78.2381 239.71 80.5925C240.6 81.4599 241.329 82.3274 241.329 82.5133C241.329 82.7611 237.93 84.9916 233.883 87.5319C202.4 106.987 167.68 122.105 101.72 145.03C60.0402 159.528 34.6274 169.565 16.1748 178.859C8.40531 182.825 3.46844 186.604 1.84979 189.826C0.716737 192.119 0.716737 196.827 1.84979 198.5C3.71124 201.226 7.83879 203.953 12.2091 205.192C19.1693 207.175 37.541 208.042 53.8084 207.113C97.9165 204.634 121.792 199.492 140.73 188.463L148.176 184.126L146.071 188.277C141.539 197.571 140.001 202.218 139.84 207.608C139.759 212.007 140.082 213.308 141.62 215.477C143.724 218.575 146.881 220 151.575 220C154.569 220 155.459 219.628 158.373 217.274C162.986 213.618 164.767 208.662 164.281 200.669C164.038 195.96 163.553 194.163 161.934 191.561L159.83 188.401L162.501 187.41C163.876 186.914 165.738 185.923 166.547 185.241C168.409 183.63 169.056 183.754 169.704 185.737C170.999 189.764 175.774 191.375 179.739 189.206C181.682 188.215 181.682 188.215 181.115 189.826C180.791 190.817 181.115 192.366 181.763 193.667C183.381 196.518 186.376 197.137 190.422 195.402C192.365 194.597 193.336 194.411 193.012 194.907C192.365 196.27 195.035 199.368 197.625 200.173C200.782 201.165 206.932 200.669 209.118 199.182C211.95 197.199 213.812 193.358 213.812 189.206C213.812 185.551 213.974 185.303 216.24 184.374C219.072 183.258 219.072 183.32 217.454 187.41C215.511 192.304 215.754 193.358 218.91 193.358C220.286 193.358 221.905 193.11 222.391 192.862C222.795 192.614 224.98 190.012 227.166 187.038C230.888 181.895 234.369 178.55 235.259 179.169C235.421 179.355 234.854 181.833 233.964 184.745C231.293 193.172 232.669 196.456 238.82 196.456C241.167 196.456 242.381 195.898 245.942 193.048L250.231 189.64V191.685C250.231 194.535 252.255 196.456 255.168 196.456C258.972 196.456 261.724 195.031 266.013 190.755C269.655 187.224 270.06 187.038 270.303 188.339C271.759 195.836 285.356 195.65 291.75 188.029C292.883 186.728 294.178 185.923 295.23 185.923C296.201 185.923 298.548 185.489 300.409 184.993C302.352 184.498 304.051 184.188 304.213 184.312C304.456 184.436 303.97 186.232 303.242 188.339C301.542 192.8 301.947 193.977 305.103 193.977C307.855 193.977 309.069 193.048 312.549 187.967C315.463 183.692 320.157 179.169 321.047 179.851C321.29 180.037 320.804 182.329 319.914 184.807C317.729 190.631 317.729 193.358 319.914 195.464C323.88 199.306 330.678 196.022 338.69 186.356L340.147 184.683L343.465 185.985C356.496 191.065 383.284 197.075 406.026 199.925C418.085 201.474 443.093 201.474 454.586 199.987C472.067 197.633 479.108 192.614 474.738 185.613C472.229 181.585 470.529 180.842 436.376 169.813C411.853 161.883 392.672 154.881 380.856 149.615C370.092 144.844 333.673 126.566 300.49 109.279C286.003 101.721 270.707 93.7898 266.661 91.6832C260.105 88.3374 259.134 87.5939 259.134 86.0449C259.134 85.0536 258.244 82.885 257.111 81.2121L255.087 78.1142L259.458 74.1488C264.556 69.5019 268.603 64.3593 271.517 58.9069C274.997 52.1534 275.644 49.5511 275.644 42.4878C275.644 37.0354 275.32 34.8049 273.864 31.3972C268.522 19.1293 259.862 12.4997 246.67 10.641C241.248 9.89746 239.953 9.89746 235.016 10.641ZM256.787 82.0795C257.596 83.4426 258.325 85.3014 258.325 86.1069C258.325 87.7798 257.111 87.6559 250.555 85.5493L246.751 84.2481L250.231 81.5219C252.174 80.0349 254.116 78.9196 254.521 79.1675C254.925 79.3534 255.978 80.6545 256.787 82.0795ZM253.064 87.0363C256.625 88.1515 258.163 89.0189 258.81 90.3201C259.7 91.931 259.781 91.931 260.024 90.6918C260.348 89.4527 260.995 89.7005 268.036 93.7898C284.385 103.208 362.323 147.136 369.445 150.854C386.279 159.714 407.402 168.326 437.185 178.426C459.199 185.923 464.298 187.905 464.298 189.021C464.298 190.198 458.47 191.685 445.683 193.606C430.225 196.022 420.432 196.642 405.217 196.27C387.735 195.836 374.139 193.915 359.328 189.888C354.634 188.587 342.98 184.498 341.847 183.754C341.766 183.692 343.142 181.4 344.922 178.735C349.697 171.672 348.888 167.087 343.061 168.202C338.205 169.132 332.782 174.522 332.782 178.488C332.782 179.727 333.511 180.966 334.887 182.019L336.991 183.63L334.077 186.79C330.678 190.57 325.741 194.349 325.013 193.791C324.689 193.544 325.256 191.189 326.146 188.463C328.412 182.329 328.412 179.479 326.308 177.868C323.961 176.071 320.4 176.319 317.081 178.55L314.249 180.408L314.411 178.673C314.573 177.124 314.249 176.939 311.821 176.753C309.474 176.567 308.665 176.877 306.156 179.107C303.485 181.4 297.658 183.754 296.282 183.073C295.958 182.949 296.282 181.524 296.929 179.913C297.577 178.24 298.143 175.08 298.224 172.787C298.386 167.335 296.606 165.228 291.588 164.981C288.674 164.795 287.865 165.042 285.842 166.715C284.547 167.769 283.333 169.442 283.009 170.433C282.685 171.672 281.957 172.292 280.986 172.292C278.396 172.292 274.997 175.08 270.545 180.904C266.175 186.48 258.972 193.358 257.353 193.358C255.897 193.358 257.353 188.463 260.348 183.134C263.666 177.31 263.747 176.815 261.481 176.319C258.244 175.514 256.382 176.505 252.74 181.09C246.104 189.392 240.6 194.287 239.144 193.172C238.982 192.986 239.548 190.693 240.438 188.153C241.41 185.551 242.138 182.329 242.138 180.966C242.138 175.452 235.421 174.336 230.079 178.921C228.541 180.222 227.57 180.78 227.894 180.16C228.137 179.479 228.622 178.24 228.946 177.372C229.189 176.505 230.727 174.522 232.264 172.973C235.825 169.442 239.225 163.741 240.519 159.156C241.41 156.058 241.41 155.439 240.196 154.076C238.253 151.783 235.421 151.969 232.912 154.509C230.322 157.112 226.68 163.803 223.038 172.725C220.61 178.797 219.882 179.789 217.616 180.904C213.245 182.949 212.921 182.825 211.384 178.673C210.008 175.08 210.008 174.77 211.303 173.097C215.349 167.955 215.026 164.857 210.251 164.857C205.233 164.857 202.077 169.07 202.967 174.708L203.452 178.24L197.706 184.807C194.631 188.401 191.07 191.809 189.856 192.428L187.671 193.482L188.156 190.508C188.399 188.835 189.937 185.117 191.555 182.267C194.793 176.381 194.712 175.142 191.151 175.514C189.046 175.761 188.804 175.575 188.561 173.965C188.399 172.787 187.509 171.61 186.133 170.867C184.19 169.751 183.543 169.689 180.71 170.309C177.23 171.114 173.022 174.398 171.241 177.62C169.946 179.975 163.553 184.498 159.749 185.737C154.731 187.348 154.488 186.728 158.049 180.718C160.639 176.195 162.42 174.274 167.518 170.185C177.392 162.254 182.896 154.881 180.629 152.775C176.907 149.367 167.842 155.749 158.292 168.574C153.76 174.584 153.679 174.646 143.401 179.975C125.919 188.959 113.941 192.057 87.5572 194.349C65.9482 196.208 24.9155 196.146 18.4409 194.225C16.4176 193.606 18.0363 192.49 28.0719 187.472C43.53 179.727 67.2432 169.318 109.814 151.535C153.679 133.258 161.772 129.788 179.011 121.919C201.267 111.758 223.766 99.49 237.687 89.9483C245.699 84.434 245.375 84.4959 253.064 87.0363ZM174.56 159.714C173.831 160.705 172.132 162.44 170.756 163.617C168.49 165.662 168.409 165.662 169.704 163.927C171.565 161.511 174.964 158.041 175.45 158.041C175.693 158.041 175.288 158.785 174.56 159.714ZM235.744 162.812C234.773 164.051 234.611 163.679 235.34 162.068C235.663 161.511 236.068 161.201 236.23 161.387C236.473 161.511 236.23 162.192 235.744 162.812ZM294.744 172.478C294.744 176.257 293.368 180.966 292.235 180.966C290.778 180.966 288.836 175.39 289.403 172.787C290.778 166.158 294.744 165.972 294.744 172.478ZM344.922 171.61C344.922 172.849 340.552 179.541 338.771 180.904C337.881 181.647 337.476 181.647 336.505 180.966C333.834 179.293 335.615 174.956 340.066 172.044C343.061 170.123 344.922 169.999 344.922 171.61ZM184.676 173.531C184.676 173.841 184.271 174.15 183.786 174.15C183.381 174.15 183.219 173.841 183.462 173.531C183.705 173.159 184.11 172.911 184.352 172.911C184.514 172.911 184.676 173.159 184.676 173.531ZM184.514 177.496C185.485 177.496 186.295 177.558 186.295 177.62C186.295 178.921 177.797 187.781 176.502 187.781C174.479 187.781 176.583 180.966 179.982 176.691C181.763 174.522 181.763 174.522 182.248 176.009C182.572 177.124 183.3 177.558 184.514 177.496ZM287.136 183.444C290.374 185.551 290.131 186.48 285.761 189.268C283.09 191.003 280.257 191.313 278.72 190.136C277.02 188.835 277.586 183.444 279.853 179.727L281.957 176.319L283.171 178.921C283.818 180.346 285.599 182.391 287.136 183.444ZM205.718 184.002C205.718 185.365 204.99 186.108 202.481 187.41C200.701 188.277 199.082 189.021 198.92 189.021C198.677 189.021 199.81 187.41 201.51 185.365C204.666 181.524 205.718 181.214 205.718 184.002ZM158.859 192.552C160.558 195.093 160.801 196.456 160.801 202.032C160.801 209.219 159.425 213.185 156.026 215.601C151.413 218.885 147.043 214.981 147.204 207.608C147.204 203.829 149.875 195.712 152.708 190.508C153.679 188.649 154.084 188.401 155.379 188.959C156.269 189.33 157.807 190.941 158.859 192.552ZM206.123 191.623C205.395 194.783 204.828 195.774 202.643 197.323C200.701 198.624 198.03 198.19 196.735 196.332C196.007 195.278 196.411 194.721 199.972 192.057C205.233 188.153 206.852 188.029 206.123 191.623Z"/>
</mask>
<path d="M235.016 10.641C224.657 12.1899 215.835 17.6423 211.141 25.2633C207.094 31.8929 205.88 37.7789 207.661 42.3019C210.251 49.1794 216.24 51.5958 221.177 47.8163C222.552 46.701 223.524 45.3379 223.524 44.3466C223.524 42.3639 219.558 39.0801 217.13 39.0801C214.54 39.0801 211.627 40.3193 210.494 41.9922C209.522 43.3553 209.36 43.4172 208.875 42.3639C206.042 36.9115 211.222 24.4578 218.668 18.7576C226.761 12.5617 240.358 10.1453 250.474 13.0574C259.862 15.7836 266.742 21.6696 270.383 30.0961C276.372 44.1607 271.355 58.5971 255.249 73.0955L252.902 75.2021L249.989 73.5292C248.37 72.5998 246.589 71.9183 246.023 72.1042C245.294 72.352 245.375 72.4759 246.266 72.4759C247.641 72.5379 251.041 75.0782 250.96 76.0076C250.96 76.3174 249.098 77.8044 246.751 79.2914L242.624 82.0176L240.358 80.0349C237.768 77.8044 237.282 78.2381 239.71 80.5925C240.6 81.4599 241.329 82.3274 241.329 82.5133C241.329 82.7611 237.93 84.9916 233.883 87.5319C202.4 106.987 167.68 122.105 101.72 145.03C60.0402 159.528 34.6274 169.565 16.1748 178.859C8.40531 182.825 3.46844 186.604 1.84979 189.826C0.716737 192.119 0.716737 196.827 1.84979 198.5C3.71124 201.226 7.83879 203.953 12.2091 205.192C19.1693 207.175 37.541 208.042 53.8084 207.113C97.9165 204.634 121.792 199.492 140.73 188.463L148.176 184.126L146.071 188.277C141.539 197.571 140.001 202.218 139.84 207.608C139.759 212.007 140.082 213.308 141.62 215.477C143.724 218.575 146.881 220 151.575 220C154.569 220 155.459 219.628 158.373 217.274C162.986 213.618 164.767 208.662 164.281 200.669C164.038 195.96 163.553 194.163 161.934 191.561L159.83 188.401L162.501 187.41C163.876 186.914 165.738 185.923 166.547 185.241C168.409 183.63 169.056 183.754 169.704 185.737C170.999 189.764 175.774 191.375 179.739 189.206C181.682 188.215 181.682 188.215 181.115 189.826C180.791 190.817 181.115 192.366 181.763 193.667C183.381 196.518 186.376 197.137 190.422 195.402C192.365 194.597 193.336 194.411 193.012 194.907C192.365 196.27 195.035 199.368 197.625 200.173C200.782 201.165 206.932 200.669 209.118 199.182C211.95 197.199 213.812 193.358 213.812 189.206C213.812 185.551 213.974 185.303 216.24 184.374C219.072 183.258 219.072 183.32 217.454 187.41C215.511 192.304 215.754 193.358 218.91 193.358C220.286 193.358 221.905 193.11 222.391 192.862C222.795 192.614 224.98 190.012 227.166 187.038C230.888 181.895 234.369 178.55 235.259 179.169C235.421 179.355 234.854 181.833 233.964 184.745C231.293 193.172 232.669 196.456 238.82 196.456C241.167 196.456 242.381 195.898 245.942 193.048L250.231 189.64V191.685C250.231 194.535 252.255 196.456 255.168 196.456C258.972 196.456 261.724 195.031 266.013 190.755C269.655 187.224 270.06 187.038 270.303 188.339C271.759 195.836 285.356 195.65 291.75 188.029C292.883 186.728 294.178 185.923 295.23 185.923C296.201 185.923 298.548 185.489 300.409 184.993C302.352 184.498 304.051 184.188 304.213 184.312C304.456 184.436 303.97 186.232 303.242 188.339C301.542 192.8 301.947 193.977 305.103 193.977C307.855 193.977 309.069 193.048 312.549 187.967C315.463 183.692 320.157 179.169 321.047 179.851C321.29 180.037 320.804 182.329 319.914 184.807C317.729 190.631 317.729 193.358 319.914 195.464C323.88 199.306 330.678 196.022 338.69 186.356L340.147 184.683L343.465 185.985C356.496 191.065 383.284 197.075 406.026 199.925C418.085 201.474 443.093 201.474 454.586 199.987C472.067 197.633 479.108 192.614 474.738 185.613C472.229 181.585 470.529 180.842 436.376 169.813C411.853 161.883 392.672 154.881 380.856 149.615C370.092 144.844 333.673 126.566 300.49 109.279C286.003 101.721 270.707 93.7898 266.661 91.6832C260.105 88.3374 259.134 87.5939 259.134 86.0449C259.134 85.0536 258.244 82.885 257.111 81.2121L255.087 78.1142L259.458 74.1488C264.556 69.5019 268.603 64.3593 271.517 58.9069C274.997 52.1534 275.644 49.5511 275.644 42.4878C275.644 37.0354 275.32 34.8049 273.864 31.3972C268.522 19.1293 259.862 12.4997 246.67 10.641C241.248 9.89746 239.953 9.89746 235.016 10.641ZM256.787 82.0795C257.596 83.4426 258.325 85.3014 258.325 86.1069C258.325 87.7798 257.111 87.6559 250.555 85.5493L246.751 84.2481L250.231 81.5219C252.174 80.0349 254.116 78.9196 254.521 79.1675C254.925 79.3534 255.978 80.6545 256.787 82.0795ZM253.064 87.0363C256.625 88.1515 258.163 89.0189 258.81 90.3201C259.7 91.931 259.781 91.931 260.024 90.6918C260.348 89.4527 260.995 89.7005 268.036 93.7898C284.385 103.208 362.323 147.136 369.445 150.854C386.279 159.714 407.402 168.326 437.185 178.426C459.199 185.923 464.298 187.905 464.298 189.021C464.298 190.198 458.47 191.685 445.683 193.606C430.225 196.022 420.432 196.642 405.217 196.27C387.735 195.836 374.139 193.915 359.328 189.888C354.634 188.587 342.98 184.498 341.847 183.754C341.766 183.692 343.142 181.4 344.922 178.735C349.697 171.672 348.888 167.087 343.061 168.202C338.205 169.132 332.782 174.522 332.782 178.488C332.782 179.727 333.511 180.966 334.887 182.019L336.991 183.63L334.077 186.79C330.678 190.57 325.741 194.349 325.013 193.791C324.689 193.544 325.256 191.189 326.146 188.463C328.412 182.329 328.412 179.479 326.308 177.868C323.961 176.071 320.4 176.319 317.081 178.55L314.249 180.408L314.411 178.673C314.573 177.124 314.249 176.939 311.821 176.753C309.474 176.567 308.665 176.877 306.156 179.107C303.485 181.4 297.658 183.754 296.282 183.073C295.958 182.949 296.282 181.524 296.929 179.913C297.577 178.24 298.143 175.08 298.224 172.787C298.386 167.335 296.606 165.228 291.588 164.981C288.674 164.795 287.865 165.042 285.842 166.715C284.547 167.769 283.333 169.442 283.009 170.433C282.685 171.672 281.957 172.292 280.986 172.292C278.396 172.292 274.997 175.08 270.545 180.904C266.175 186.48 258.972 193.358 257.353 193.358C255.897 193.358 257.353 188.463 260.348 183.134C263.666 177.31 263.747 176.815 261.481 176.319C258.244 175.514 256.382 176.505 252.74 181.09C246.104 189.392 240.6 194.287 239.144 193.172C238.982 192.986 239.548 190.693 240.438 188.153C241.41 185.551 242.138 182.329 242.138 180.966C242.138 175.452 235.421 174.336 230.079 178.921C228.541 180.222 227.57 180.78 227.894 180.16C228.137 179.479 228.622 178.24 228.946 177.372C229.189 176.505 230.727 174.522 232.264 172.973C235.825 169.442 239.225 163.741 240.519 159.156C241.41 156.058 241.41 155.439 240.196 154.076C238.253 151.783 235.421 151.969 232.912 154.509C230.322 157.112 226.68 163.803 223.038 172.725C220.61 178.797 219.882 179.789 217.616 180.904C213.245 182.949 212.921 182.825 211.384 178.673C210.008 175.08 210.008 174.77 211.303 173.097C215.349 167.955 215.026 164.857 210.251 164.857C205.233 164.857 202.077 169.07 202.967 174.708L203.452 178.24L197.706 184.807C194.631 188.401 191.07 191.809 189.856 192.428L187.671 193.482L188.156 190.508C188.399 188.835 189.937 185.117 191.555 182.267C194.793 176.381 194.712 175.142 191.151 175.514C189.046 175.761 188.804 175.575 188.561 173.965C188.399 172.787 187.509 171.61 186.133 170.867C184.19 169.751 183.543 169.689 180.71 170.309C177.23 171.114 173.022 174.398 171.241 177.62C169.946 179.975 163.553 184.498 159.749 185.737C154.731 187.348 154.488 186.728 158.049 180.718C160.639 176.195 162.42 174.274 167.518 170.185C177.392 162.254 182.896 154.881 180.629 152.775C176.907 149.367 167.842 155.749 158.292 168.574C153.76 174.584 153.679 174.646 143.401 179.975C125.919 188.959 113.941 192.057 87.5572 194.349C65.9482 196.208 24.9155 196.146 18.4409 194.225C16.4176 193.606 18.0363 192.49 28.0719 187.472C43.53 179.727 67.2432 169.318 109.814 151.535C153.679 133.258 161.772 129.788 179.011 121.919C201.267 111.758 223.766 99.49 237.687 89.9483C245.699 84.434 245.375 84.4959 253.064 87.0363ZM174.56 159.714C173.831 160.705 172.132 162.44 170.756 163.617C168.49 165.662 168.409 165.662 169.704 163.927C171.565 161.511 174.964 158.041 175.45 158.041C175.693 158.041 175.288 158.785 174.56 159.714ZM235.744 162.812C234.773 164.051 234.611 163.679 235.34 162.068C235.663 161.511 236.068 161.201 236.23 161.387C236.473 161.511 236.23 162.192 235.744 162.812ZM294.744 172.478C294.744 176.257 293.368 180.966 292.235 180.966C290.778 180.966 288.836 175.39 289.403 172.787C290.778 166.158 294.744 165.972 294.744 172.478ZM344.922 171.61C344.922 172.849 340.552 179.541 338.771 180.904C337.881 181.647 337.476 181.647 336.505 180.966C333.834 179.293 335.615 174.956 340.066 172.044C343.061 170.123 344.922 169.999 344.922 171.61ZM184.676 173.531C184.676 173.841 184.271 174.15 183.786 174.15C183.381 174.15 183.219 173.841 183.462 173.531C183.705 173.159 184.11 172.911 184.352 172.911C184.514 172.911 184.676 173.159 184.676 173.531ZM184.514 177.496C185.485 177.496 186.295 177.558 186.295 177.62C186.295 178.921 177.797 187.781 176.502 187.781C174.479 187.781 176.583 180.966 179.982 176.691C181.763 174.522 181.763 174.522 182.248 176.009C182.572 177.124 183.3 177.558 184.514 177.496ZM287.136 183.444C290.374 185.551 290.131 186.48 285.761 189.268C283.09 191.003 280.257 191.313 278.72 190.136C277.02 188.835 277.586 183.444 279.853 179.727L281.957 176.319L283.171 178.921C283.818 180.346 285.599 182.391 287.136 183.444ZM205.718 184.002C205.718 185.365 204.99 186.108 202.481 187.41C200.701 188.277 199.082 189.021 198.92 189.021C198.677 189.021 199.81 187.41 201.51 185.365C204.666 181.524 205.718 181.214 205.718 184.002ZM158.859 192.552C160.558 195.093 160.801 196.456 160.801 202.032C160.801 209.219 159.425 213.185 156.026 215.601C151.413 218.885 147.043 214.981 147.204 207.608C147.204 203.829 149.875 195.712 152.708 190.508C153.679 188.649 154.084 188.401 155.379 188.959C156.269 189.33 157.807 190.941 158.859 192.552ZM206.123 191.623C205.395 194.783 204.828 195.774 202.643 197.323C200.701 198.624 198.03 198.19 196.735 196.332C196.007 195.278 196.411 194.721 199.972 192.057C205.233 188.153 206.852 188.029 206.123 191.623Z" fill="white" stroke="white" stroke-width="1000" mask="url(#path-1-inside-1_0_1)"/>
<path d="M137.1 56.7H147.6C149.867 56.7 151.333 57.0667 152 57.8C152.733 58.5333 153.1 60.0667 153.1 62.4V129H142.6C140.333 129 138.833 128.633 138.1 127.9C137.433 127.167 137.1 125.633 137.1 123.3V56.7ZM163.9 99.1H175.3C177.3 99.1 178.733 99.6667 179.6 100.8C180.467 101.867 180.9 103.633 180.9 106.1V129H167.5C166.433 129 165.567 128.633 164.9 127.9C164.233 127.167 163.9 126.2 163.9 125V99.1ZM164.2 56.7H175.7C177.633 56.7 178.867 57.0667 179.4 57.8C179.933 58.5333 180.2 60.0667 180.2 62.4V83.6C180.2 87.6 179.467 90.6 178 92.6C176.6 94.5333 173.733 95.5 169.4 95.5H157.1V86H161.5C162.7 86 163.433 85.8 163.7 85.4C164.033 84.9333 164.2 84.1667 164.2 83.1V56.7ZM221.031 66.2H211.731C210.665 66.2 210.131 66.4667 210.131 67V129H199.631C197.365 129 195.865 128.633 195.131 127.9C194.465 127.167 194.131 125.633 194.131 123.3V62.4C194.131 60.0667 194.465 58.5333 195.131 57.8C195.865 57.0667 197.365 56.7 199.631 56.7H221.031V66.2ZM225.031 56.7H235.531C237.798 56.7 239.265 57.0667 239.931 57.8C240.665 58.5333 241.031 60.0667 241.031 62.4V123.2C241.031 125.533 240.665 127.1 239.931 127.9C239.198 128.633 237.731 129 235.531 129H225.031V95.5H214.131V86H225.031V56.7ZM271.264 129H260.764C258.497 129 256.997 128.633 256.264 127.9C255.597 127.167 255.264 125.633 255.264 123.3V60.7C255.264 59.5 255.597 58.5333 256.264 57.8C256.931 57.0667 257.797 56.7 258.864 56.7H271.264V129ZM275.264 56.7H287.964C291.831 56.7 294.864 57 297.064 57.6C299.331 58.2 301.031 59.4 302.164 61.2C303.297 62.9333 303.997 64.9 304.264 67.1C304.597 69.2333 304.764 72.2667 304.764 76.2C304.764 80.1333 304.597 83.1333 304.264 85.2C303.997 87.2667 303.297 89.2 302.164 91C301.097 92.8 299.397 94.0667 297.064 94.8C294.797 95.5333 291.764 95.9 287.964 95.9H275.264V86.4H282.664C284.397 86.4 285.497 86.1667 285.964 85.7C286.497 85.2333 286.764 84.5 286.764 83.5V69.2C286.764 68.1333 286.497 67.3667 285.964 66.9C285.497 66.4333 284.397 66.2 282.664 66.2H275.264V56.7ZM284.864 99H297.264C299.264 99 300.697 99.5667 301.564 100.7C302.431 101.767 302.864 103.533 302.864 106V129H288.464C287.397 129 286.531 128.633 285.864 127.9C285.197 127.167 284.864 126.2 284.864 125V99ZM348.578 107.2H362.578C363.311 107.2 363.678 107.667 363.678 108.6V126.2C363.678 128.067 362.745 129 360.878 129H336.678V119.5H345.978C347.045 119.5 347.578 119.4 347.578 119.2C347.645 118.933 347.678 118.633 347.678 118.3V108.3C347.678 107.767 347.745 107.467 347.878 107.4C348.011 107.267 348.245 107.2 348.578 107.2ZM333.178 129H322.678C320.411 129 318.911 128.633 318.178 127.9C317.511 127.167 317.178 125.633 317.178 123.3V62.4C317.178 60.0667 317.511 58.5333 318.178 57.8C318.911 57.0667 320.411 56.7 322.678 56.7H333.178V129Z" fill="white"/>
</g>
<defs>
<clipPath id="clip0_0_1">
<rect width="476" height="220" fill="white"/>
</clipPath>
</defs>
</svg>
